<svg width="130" height="40" viewBox="0 0 130 40" fill="none" xmlns="http://www.w3.org/2000/svg">
<g clip-path="url(#clip0_658_152)">
<path d="M9.07011 6.38281L0.386719 12.0212L9.07011 17.6596L17.7535 12.0212L9.07011 6.38281Z" fill="#82FF83"/>
<path d="M0.386719 12.0234V17.6619L9.07011 23.3003V17.6619L0.386719 12.0234Z" fill="#F3F3F3"/>
<path d="M17.7498 12.0234V17.6619L9.06641 23.3003V17.6619L17.7498 12.0234Z" fill="#CFCCCF"/>
<path d="M9.07011 6.38281L0.386719 12.0212L9.07011 17.6596L17.7535 12.0212L9.07011 6.38281Z" fill="#82FF83"/>
<path d="M0.386719 12.0234V17.6619L9.07011 23.3003V17.6619L0.386719 12.0234Z" fill="#F3F3F3"/>
<path d="M17.7498 12.0234V17.6619L9.06641 23.3003V17.6619L17.7498 12.0234Z" fill="#CFCCCF"/>
<path d="M9.06932 23.6828C8.996 23.6828 8.92267 23.6635 8.86092 23.6211L0.177527 17.9826C0.0694671 17.9132 0 17.7897 0 17.6585V12.02C0 11.8773 0.0771857 11.7499 0.200683 11.6804C0.32418 11.611 0.478551 11.6187 0.59433 11.6959L9.27772 17.3343C9.38578 17.4038 9.45525 17.5272 9.45525 17.6585V23.2969C9.45525 23.4397 9.37807 23.567 9.25457 23.6365C9.19668 23.6674 9.13493 23.6828 9.06932 23.6828ZM0.771857 17.4501L8.68339 22.5868V17.8707L0.771857 12.7302V17.4501Z" fill="#231F20"/>
<path d="M9.06562 23.6852C9.00387 23.6852 8.93826 23.6697 8.88037 23.6389C8.75687 23.5733 8.67969 23.442 8.67969 23.2992V17.6608C8.67969 17.5296 8.7453 17.41 8.85721 17.3366L17.5406 11.6982C17.6602 11.621 17.8108 11.6172 17.9343 11.6828C18.0578 11.7484 18.1349 11.8796 18.1349 12.0224V17.6608C18.1349 17.792 18.0693 17.9117 17.9574 17.985L9.27402 23.6234C9.20841 23.6659 9.13508 23.6852 9.06562 23.6852ZM9.45154 17.8731V22.5891L17.3631 17.4524V12.7325L9.45154 17.8692V17.8731Z" fill="#231F20"/>
<path d="M9.06932 18.0458C8.99599 18.0458 8.92267 18.0265 8.86092 17.984L0.177527 12.3456C0.0694671 12.2761 0 12.1526 0 12.0214C0 11.8902 0.0656079 11.7706 0.177527 11.6972L8.86092 6.05883C8.98828 5.97779 9.15422 5.97779 9.28158 6.05883L17.965 11.6972C18.073 11.7667 18.1425 11.8902 18.1425 12.0214C18.1425 12.1526 18.0769 12.2723 17.965 12.3456L9.28158 17.984C9.21597 18.0265 9.14265 18.0458 9.07318 18.0458H9.06932ZM1.09604 12.0214L9.06932 17.2006L17.0426 12.0214L9.06932 6.84227L1.09604 12.0214Z" fill="#231F20"/>
<path d="M26.4373 6.38281L17.7539 12.0212L26.4373 17.6596L35.1207 12.0212L26.4373 6.38281Z" fill="#82FF83"/>
<path d="M17.7539 12.0234V17.6619L26.4373 23.3003V17.6619L17.7539 12.0234Z" fill="#F3F3F3"/>
<path d="M35.117 12.0234V17.6619L26.4336 23.3003V17.6619L35.117 12.0234Z" fill="#CFCCCF"/>
<path d="M26.4373 6.38281L17.7539 12.0212L26.4373 17.6596L35.1207 12.0212L26.4373 6.38281Z" fill="#0B65FA"/>
<path d="M17.7539 12.0234V17.6619L26.4373 23.3003V17.6619L17.7539 12.0234Z" fill="#F3F3F3"/>
<path d="M35.117 12.0234V17.6619L26.4336 23.3003V17.6619L35.117 12.0234Z" fill="#CFCCCF"/>
<path d="M26.4365 23.6852C26.3632 23.6852 26.2899 23.6659 26.2281 23.6234L17.5447 17.985C17.4367 17.9155 17.3672 17.792 17.3672 17.6608V12.0224C17.3672 11.8796 17.4444 11.7523 17.5679 11.6828C17.6914 11.6172 17.8419 11.621 17.9615 11.6982L26.6449 17.3366C26.753 17.4061 26.8224 17.5296 26.8224 17.6608V23.2992C26.8224 23.442 26.7453 23.5694 26.6218 23.6389C26.5639 23.6697 26.5021 23.6852 26.4365 23.6852ZM18.139 17.4524L26.0506 22.5891V17.8731L18.139 12.7364V17.4563V17.4524Z" fill="#231F20"/>
<path d="M26.4406 23.6852C26.3789 23.6852 26.3133 23.6697 26.2554 23.6389C26.1319 23.5733 26.0547 23.442 26.0547 23.2992V17.6608C26.0547 17.5296 26.1203 17.41 26.2322 17.3366L34.9156 11.6982C35.0352 11.621 35.1858 11.6172 35.3093 11.6828C35.4328 11.7484 35.5099 11.8796 35.5099 12.0224V17.6608C35.5099 17.792 35.4443 17.9117 35.3324 17.985L26.649 23.6234C26.5834 23.6659 26.5101 23.6852 26.4406 23.6852ZM26.8265 17.8731V22.5891L34.7381 17.4524V12.7325L26.8265 17.8692V17.8731Z" fill="#231F20"/>
<path d="M26.4365 18.0458C26.3632 18.0458 26.2899 18.0265 26.2281 17.984L17.5447 12.3456C17.4367 12.2761 17.3672 12.1526 17.3672 12.0214C17.3672 11.8902 17.4328 11.7706 17.5447 11.6972L26.2281 6.05883C26.3555 5.97779 26.5214 5.97779 26.6488 6.05883L35.3322 11.6972C35.4402 11.7667 35.5097 11.8902 35.5097 12.0214C35.5097 12.1526 35.4441 12.2723 35.3322 12.3456L26.6488 17.984C26.5832 18.0265 26.5098 18.0458 26.4404 18.0458H26.4365ZM18.4632 12.0214L26.4365 17.2006L34.4098 12.0214L26.4365 6.84227L18.4632 12.0214Z" fill="#231F20"/>
<path d="M17.7498 12.0234L9.06641 17.6619L17.7498 23.3003L26.4332 17.6619L17.7498 12.0234Z" fill="#82FF83"/>
<path d="M9.06641 17.6641V23.3025L17.7498 28.9409V23.3025L9.06641 17.6641Z" fill="#F3F3F3"/>
<path d="M26.4295 17.6641V23.3025L17.7461 28.9409V23.3025L26.4295 17.6641Z" fill="#CFCCCF"/>
<path d="M17.7498 12.0234L9.06641 17.6619L17.7498 23.3003L26.4332 17.6619L17.7498 12.0234Z" fill="#82FF83"/>
<path d="M9.06641 17.6641V23.3025L17.7498 28.9409V23.3025L9.06641 17.6641Z" fill="#F3F3F3"/>
<path d="M26.4295 17.6641V23.3025L17.7461 28.9409V23.3025L26.4295 17.6641Z" fill="#CFCCCF"/>
<path d="M17.749 29.3234C17.6757 29.3234 17.6024 29.3041 17.5406 29.2617L8.85721 23.6233C8.74915 23.5538 8.67969 23.4303 8.67969 23.2991V17.6607C8.67969 17.5179 8.75687 17.3905 8.88037 17.3211C9.00387 17.2516 9.15438 17.2593 9.27402 17.3365L17.9574 22.9749C18.0655 23.0444 18.1349 23.1679 18.1349 23.2991V28.9375C18.1349 29.0803 18.0578 29.2077 17.9343 29.2771C17.8764 29.308 17.8146 29.3234 17.749 29.3234ZM9.45154 23.0907L17.3631 28.2274V23.5114L9.45154 18.3746V23.0945V23.0907Z" fill="#231F20"/>
<path d="M17.7453 29.3258C17.6836 29.3258 17.6179 29.3104 17.5601 29.2795C17.4366 29.2139 17.3594 29.0827 17.3594 28.9399V23.3015C17.3594 23.1702 17.425 23.0506 17.5369 22.9773L26.2203 17.3389C26.3399 17.2617 26.4904 17.2578 26.6139 17.3234C26.7374 17.389 26.8146 17.5202 26.8146 17.663V23.3015C26.8146 23.4327 26.749 23.5523 26.6371 23.6256L17.9537 29.264C17.8881 29.3065 17.8148 29.3258 17.7453 29.3258ZM18.1312 23.5137V28.2298L26.0428 23.093V18.3731L18.1312 23.5099V23.5137Z" fill="#231F20"/>
<path d="M17.749 23.6864C17.6757 23.6864 17.6024 23.6671 17.5406 23.6246L8.85721 17.9862C8.74915 17.9168 8.67969 17.7933 8.67969 17.6621C8.67969 17.5308 8.7453 17.4112 8.85721 17.3379L17.5406 11.6995C17.668 11.6184 17.8339 11.6184 17.9613 11.6995L26.6447 17.3379C26.7527 17.4073 26.8222 17.5308 26.8222 17.6621C26.8222 17.7933 26.7566 17.9129 26.6447 17.9862L17.9613 23.6246C17.8957 23.6671 17.8223 23.6864 17.7529 23.6864H17.749ZM9.77572 17.6621L17.749 22.8412L25.7223 17.6621L17.749 12.4829L9.77572 17.6621Z" fill="#231F20"/>
<path d="M9.07011 17.6641L0.386719 23.3025L9.07011 28.9409L17.7535 23.3025L9.07011 17.6641Z" fill="#82FF83"/>
<path d="M0.386719 23.3008V28.9392L9.07011 34.5776V28.9392L0.386719 23.3008Z" fill="#F3F3F3"/>
<path d="M17.7498 23.3008V28.9392L9.06641 34.5776V28.9392L17.7498 23.3008Z" fill="#CFCCCF"/>
<path d="M9.07011 17.6621L0.386719 23.3005L9.07011 28.9389L17.7535 23.3005L9.07011 17.6621Z" fill="#0B65FA"/>
<path d="M0.386719 23.3008V28.9392L9.07011 34.5776V28.9392L0.386719 23.3008Z" fill="#F3F3F3"/>
<path d="M17.7498 23.3008V28.9392L9.06641 34.5776V28.9392L17.7498 23.3008Z" fill="#CFCCCF"/>
<path d="M9.06932 34.9621C8.996 34.9621 8.92267 34.9428 8.86092 34.9004L0.177527 29.2619C0.0694671 29.1925 0 29.069 0 28.9378V23.2993C0 23.1566 0.0771857 23.0292 0.200683 22.9597C0.32418 22.8903 0.478551 22.898 0.59433 22.9752L9.27772 28.6136C9.38578 28.683 9.45525 28.8065 9.45525 28.9378V34.5762C9.45525 34.719 9.37807 34.8463 9.25457 34.9158C9.19668 34.9467 9.13493 34.9621 9.06932 34.9621ZM0.771857 28.7294L8.68339 33.8661V29.15L0.771857 24.0095V28.7294Z" fill="#231F20"/>
<path d="M9.06562 34.9645C9.00387 34.9645 8.93826 34.949 8.88037 34.9182C8.75687 34.8525 8.67969 34.7213 8.67969 34.5785V28.9401C8.67969 28.8089 8.7453 28.6893 8.85721 28.6159L17.5406 22.9775C17.6602 22.9003 17.8108 22.8965 17.9343 22.9621C18.0578 23.0277 18.1349 23.1589 18.1349 23.3017V28.9401C18.1349 29.0713 18.0693 29.191 17.9574 29.2643L9.27402 34.9027C9.20841 34.9452 9.13508 34.9645 9.06562 34.9645ZM9.45154 29.1524V33.8684L17.3631 28.7317V24.0118L9.45154 29.1485V29.1524Z" fill="#231F20"/>
<path d="M9.06932 29.3251C8.99599 29.3251 8.92267 29.3058 8.86092 29.2633L0.177527 23.6249C0.0694671 23.5554 0 23.4319 0 23.3007C0 23.1695 0.0656079 23.0499 0.177527 22.9765L8.86092 17.3381C8.98828 17.2571 9.15422 17.2571 9.28158 17.3381L17.965 22.9765C18.073 23.046 18.1425 23.1695 18.1425 23.3007C18.1425 23.4319 18.0769 23.5516 17.965 23.6249L9.28158 29.2633C9.21597 29.3058 9.14265 29.3251 9.07318 29.3251H9.06932ZM1.09604 23.3007L9.06932 28.4799L17.0426 23.3007L9.06932 18.1216L1.09604 23.3007Z" fill="#231F20"/>
<path d="M26.4432 17.6641L17.7598 23.3025L26.4432 28.9409L35.1266 23.3025L26.4432 17.6641Z" fill="#82FF83"/>
<path d="M17.7598 23.3008V28.9392L26.4432 34.5776V28.9392L17.7598 23.3008Z" fill="#F3F3F3"/>
<path d="M35.117 23.3008V28.9392L26.4336 34.5776V28.9392L35.117 23.3008Z" fill="#CFCCCF"/>
<path d="M26.4432 17.6602L17.7598 23.2986L26.4432 28.937L35.1266 23.2986L26.4432 17.6602Z" fill="#82FF83"/>
<path d="M17.7598 23.3008V28.9392L26.4432 34.5776V28.9392L17.7598 23.3008Z" fill="#F3F3F3"/>
<path d="M35.117 23.3008V28.9392L26.4336 34.5776V28.9392L35.117 23.3008Z" fill="#CFCCCF"/>
<path d="M26.4365 34.9645C26.3632 34.9645 26.2899 34.9452 26.2281 34.9027L17.5447 29.2643C17.4367 29.1948 17.3672 29.0713 17.3672 28.9401V23.3017C17.3672 23.1589 17.4444 23.0316 17.5679 22.9621C17.6914 22.8965 17.8419 22.9003 17.9615 22.9775L26.6449 28.6159C26.753 28.6854 26.8224 28.8089 26.8224 28.9401V34.5785C26.8224 34.7213 26.7453 34.8487 26.6218 34.9182C26.5639 34.949 26.5021 34.9645 26.4365 34.9645ZM18.139 28.7317L26.0506 33.8684V29.1524L18.139 24.0157V28.7356V28.7317Z" fill="#231F20"/>
<path d="M26.4406 34.9645C26.3789 34.9645 26.3133 34.949 26.2554 34.9182C26.1319 34.8525 26.0547 34.7213 26.0547 34.5785V28.9401C26.0547 28.8089 26.1203 28.6893 26.2322 28.6159L34.9156 22.9775C35.0352 22.9003 35.1858 22.8965 35.3093 22.9621C35.4328 23.0277 35.5099 23.1589 35.5099 23.3017V28.9401C35.5099 29.0713 35.4443 29.191 35.3324 29.2643L26.649 34.9027C26.5834 34.9452 26.5101 34.9645 26.4406 34.9645ZM26.8265 29.1524V33.8684L34.7381 28.7317V24.0118L26.8265 29.1485V29.1524Z" fill="#231F20"/>
<path d="M26.4365 29.3251C26.3632 29.3251 26.2899 29.3058 26.2281 29.2633L17.5447 23.6249C17.4367 23.5554 17.3672 23.4319 17.3672 23.3007C17.3672 23.1695 17.4328 23.0499 17.5447 22.9765L26.2281 17.3381C26.3555 17.2571 26.5214 17.2571 26.6488 17.3381L35.3322 22.9765C35.4402 23.046 35.5097 23.1695 35.5097 23.3007C35.5097 23.4319 35.4441 23.5516 35.3322 23.6249L26.6488 29.2633C26.5832 29.3058 26.5098 29.3251 26.4404 29.3251H26.4365ZM18.4632 23.3007L26.4365 28.4799L34.4098 23.3007L26.4365 18.1216L18.4632 23.3007Z" fill="#231F20"/>
</g>
<path d="M50.4766 15.8711H52.1819C55.5685 15.8711 57.2463 16.9874 57.2361 19.244H54.887C54.9007 18.2715 53.8495 17.775 51.7881 17.775H50.8704C48.6514 17.775 47.4838 18.7714 47.4838 20.7027C47.4838 22.634 48.6514 23.6305 50.8704 23.6305H51.7881C53.8221 23.6305 54.8733 23.0415 54.887 21.8841L50.2814 21.8567V20.2165H57.2361V21.8293C57.2361 24.2708 55.5308 25.531 52.1819 25.531H50.4766C46.9598 25.531 45.1621 23.8907 45.1621 20.7027C45.1621 17.5147 46.9598 15.8711 50.4766 15.8711Z" fill="white"/>
<path d="M60.8545 23.5106L59.3717 25.0584H56.6289L65.3163 15.8711H67.7064L76.4862 25.0584H73.7571L72.2333 23.5106H60.8545ZM66.5113 17.6449L62.6522 21.6615H70.4219L66.5113 17.6449Z" fill="white"/>
<path d="M77.1816 15.8711H79.4143L83.6809 21.8944L87.9441 15.8711H90.1767V25.0584H87.9441V19.3228L84.5061 24.2195L82.8522 24.2332L79.4143 19.3262V25.0618H77.1816V15.8711Z" fill="white"/>
<path d="M92.2305 15.8711H94.4631V25.0584H92.2305V15.8711Z" fill="white"/>
<path d="M116.207 25.0584H114.002L98.7502 18.09V25.0584H96.5176V15.8711H98.7091L113.974 22.8669V15.8711H116.207V25.0584Z" fill="white"/>
<path d="M123.227 15.8711H124.932C128.319 15.8711 129.997 16.9874 129.987 19.244H127.638C127.651 18.2715 126.6 17.775 124.539 17.775H123.621C121.402 17.775 120.234 18.7714 120.234 20.7027C120.234 22.634 121.402 23.6305 123.621 23.6305H124.539C126.573 23.6305 127.624 23.0415 127.638 21.8841L123.032 21.8567V20.2165H129.99V21.8293C129.99 24.2708 128.285 25.531 124.936 25.531H123.23C119.714 25.531 117.916 23.8907 117.916 20.7027C117.916 17.5147 119.714 15.8711 123.23 15.8711L123.227 15.8711Z" fill="white"/>
<defs>
<clipPath id="clip0_658_152">
<rect width="35.5054" height="28.9639" fill="white" transform="translate(0 6)"/>
</clipPath>
</defs>
</svg>
